<svg width="40" height="36" viewBox="0 0 40 36" fill="none" xmlns="http://www.w3.org/2000/svg">
<path d="M15.7333 15.7333C20.078 15.7333 23.6 12.2113 23.6 7.86667C23.6 3.52203 20.078 0 15.7333 0C11.3887 0 7.86666 3.52203 7.86666 7.86667C7.86666 12.2113 11.3887 15.7333 15.7333 15.7333Z" fill="#ACD1C0"/>
<path d="M16.4217 19.6863C11.0527 19.4897 0 22.1643 0 27.5333V31.4667H18.762C13.9043 26.0387 16.343 19.883 16.4217 19.6863Z" fill="#ACD1C0"/>
<path d="M34.279 27.5727C34.987 26.4123 35.4 25.0553 35.4 23.6C35.4 19.2537 31.8797 15.7333 27.5333 15.7333C23.187 15.7333 19.6667 19.2537 19.6667 23.6C19.6667 27.9463 23.187 31.4667 27.5333 31.4667C28.9887 31.4667 30.3457 31.034 31.506 30.3457L36.5603 35.4L39.3333 32.627L34.279 27.5727ZM27.5333 27.5333C25.37 27.5333 23.6 25.7633 23.6 23.6C23.6 21.4367 25.37 19.6667 27.5333 19.6667C29.6967 19.6667 31.4667 21.4367 31.4667 23.6C31.4667 25.7633 29.6967 27.5333 27.5333 27.5333Z" fill="#ACD1C0"/>
</svg>
