<svg width="28" height="35" viewBox="0 0 28 35" fill="none" xmlns="http://www.w3.org/2000/svg">
<path d="M17.5 0H3.5C1.575 0 0 1.575 0 3.5V31.5C0 33.425 1.575 35 3.5 35H24.5C26.425 35 28 33.425 28 31.5V10.5L17.5 0ZM14 14C15.925 14 17.5 15.575 17.5 17.5C17.5 19.425 15.925 21 14 21C12.075 21 10.5 19.425 10.5 17.5C10.5 15.575 12.075 14 14 14ZM21 28H7V27.0025C7 25.585 7.84 24.325 9.135 23.765C10.6225 23.1175 12.2675 22.75 14 22.75C15.7325 22.75 17.3775 23.1175 18.865 23.765C20.16 24.325 21 25.585 21 27.0025V28Z" fill="#498065"/>
</svg>
