<svg width="35" height="35" viewBox="0 0 35 35" fill="none" xmlns="http://www.w3.org/2000/svg">
<path d="M17.4825 0C7.8225 0 0 7.84 0 17.5C0 27.16 7.8225 35 17.4825 35C27.16 35 35 27.16 35 17.5C35 7.84 27.16 0 17.4825 0ZM29.61 10.5H24.4475C23.8875 8.3125 23.0825 6.2125 22.0325 4.27C25.2525 5.3725 27.93 7.6125 29.61 10.5ZM17.5 3.57C18.9525 5.67 20.09 7.9975 20.8425 10.5H14.1575C14.91 7.9975 16.0475 5.67 17.5 3.57ZM3.955 21C3.675 19.88 3.5 18.7075 3.5 17.5C3.5 16.2925 3.675 15.12 3.955 14H9.87C9.73 15.155 9.625 16.31 9.625 17.5C9.625 18.69 9.73 19.845 9.87 21H3.955ZM5.39 24.5H10.5525C11.1125 26.6875 11.9175 28.7875 12.9675 30.73C9.7475 29.6275 7.07 27.405 5.39 24.5V24.5ZM10.5525 10.5H5.39C7.07 7.595 9.7475 5.3725 12.9675 4.27C11.9175 6.2125 11.1125 8.3125 10.5525 10.5V10.5ZM17.5 31.43C16.0475 29.33 14.91 27.0025 14.1575 24.5H20.8425C20.09 27.0025 18.9525 29.33 17.5 31.43ZM21.595 21H13.405C13.2475 19.845 13.125 18.69 13.125 17.5C13.125 16.31 13.2475 15.1375 13.405 14H21.595C21.7525 15.1375 21.875 16.31 21.875 17.5C21.875 18.69 21.7525 19.845 21.595 21ZM22.0325 30.73C23.0825 28.7875 23.8875 26.6875 24.4475 24.5H29.61C27.93 27.3875 25.2525 29.6275 22.0325 30.73V30.73ZM25.13 21C25.27 19.845 25.375 18.69 25.375 17.5C25.375 16.31 25.27 15.155 25.13 14H31.045C31.325 15.12 31.5 16.2925 31.5 17.5C31.5 18.7075 31.325 19.88 31.045 21H25.13Z" fill="#498065"/>
</svg>
